<svg width="148" height="99" viewBox="0 0 148 99" fill="none" xmlns="http://www.w3.org/2000/svg">
<path d="M73.3923 39.1841L40.4079 94.6185C39.249 96.5661 40.6976 99.0002 43.0153 99.0002H108.985C111.303 99.0002 112.751 96.5658 111.592 94.6185L78.6072 39.1841C77.4484 37.2368 74.5512 37.2368 73.3923 39.1841Z" fill="#2B69DD"/>
<g filter="url(#filter0_d)">
<path d="M28.9531 26.4116L24.8461 11.9352C24.58 10.9977 23.3393 10.6838 22.6127 11.3701L11.3918 21.9676C10.6652 22.6538 10.9976 23.8256 11.9902 24.0768L27.3181 27.9557C28.3108 28.2069 29.2191 27.3491 28.9531 26.4116Z" fill="#2B69DD"/>
</g>
<path d="M75.9999 75.5105C74.1583 75.5105 72.6377 74.1586 72.5372 72.4315L71.7711 59.2796C71.6383 57.0009 73.57 55.085 75.9999 55.085C78.4299 55.085 80.3615 57.0011 80.2288 59.2796L79.4627 72.4315C79.3622 74.1586 77.8416 75.5105 75.9999 75.5105Z" fill="#FBAC00"/>
<path d="M75.9999 90.8296C78.339 90.8296 80.2352 89.2293 80.2352 87.2551C80.2352 85.281 78.339 83.6807 75.9999 83.6807C73.6609 83.6807 71.7646 85.281 71.7646 87.2551C71.7646 89.2293 73.6609 90.8296 75.9999 90.8296Z" fill="#FBAC00"/>
<path d="M76.0003 3C62.8999 3 50.6103 6.48787 40 12.5L51.3984 32C58.6603 27.8989 67.0588 25.554 76 25.554C84.9412 25.554 93.3397 27.8989 100.602 32L112 12.4486C101.39 6.43643 89.1006 3 76.0003 3Z" fill="#FBAC00"/>
<path d="M15.1174 98.9998C19.5032 98.9998 23.0586 95.5705 23.0586 91.3402C23.0586 87.11 19.5032 83.6807 15.1174 83.6807C10.7317 83.6807 7.17627 87.11 7.17627 91.3402C7.17627 95.5705 10.7317 98.9998 15.1174 98.9998Z" fill="#87B645"/>
<path d="M111.674 13.2129L100.353 31.7599C114.875 39.5933 124.821 54.1812 125.374 70.969C125.401 71.7919 126.11 72.4469 126.981 72.4469H146.389C147.294 72.4469 148.02 71.741 148 70.8853C147.413 46.1829 132.94 24.7223 111.674 13.2129Z" fill="#FF0000"/>
<path d="M136.883 98.9998C141.268 98.9998 144.824 95.5705 144.824 91.3402C144.824 87.11 141.268 83.6807 136.883 83.6807C132.497 83.6807 128.941 87.11 128.941 91.3402C128.941 95.5705 132.497 98.9998 136.883 98.9998Z" fill="#FF0000"/>
<path d="M40.3263 13.2129C36.0635 15.5199 32.0738 18.227 28.4142 21.2796L30.1491 27.4041C30.4237 28.3732 29.4861 29.2601 28.4615 29.0003L21.9866 27.3593C11.1185 39.0166 4.39583 54.2142 4.00041 70.8888C3.98014 71.7431 4.70789 72.4469 5.61138 72.4469H25.0196C25.8899 72.4469 26.5987 71.7919 26.6258 70.969C27.1792 54.1812 37.125 39.5933 51.647 31.7599L40.3263 13.2129Z" fill="#87B645"/>
<defs>
<filter id="filter0_d" x="0" y="0" width="48" height="47" filterUnits="userSpaceOnUse" color-interpolation-filters="sRGB">
<feFlood flood-opacity="0" result="BackgroundImageFix"/>
<feColorMatrix in="SourceAlpha" type="matrix" values="0 0 0 0 0 0 0 0 0 0 0 0 0 0 0 0 0 0 127 0"/>
<feOffset dx="4" dy="4"/>
<feGaussianBlur stdDeviation="7.5"/>
<feColorMatrix type="matrix" values="0 0 0 0 0 0 0 0 0 0 0 0 0 0 0 0 0 0 0.25 0"/>
<feBlend mode="normal" in2="BackgroundImageFix" result="effect1_dropShadow"/>
<feBlend mode="normal" in="SourceGraphic" in2="effect1_dropShadow" result="shape"/>
</filter>
</defs>
</svg>
