<svg width="108" height="102" viewBox="0 0 108 102" fill="none" xmlns="http://www.w3.org/2000/svg">
<path d="M108 10.5486V27.3748H87.9585V10.5486C87.9488 4.73218 92.4204 0.00928231 97.945 0H97.9952C103.514 0 107.99 4.70526 108 10.5151V10.5486Z" fill="#2B69DD"/>
<path d="M25.8883 0H97.945C92.4205 0.00928231 87.9488 4.73218 87.9585 10.5486V87.8396C87.9497 95.6628 81.9226 102 74.4907 102H74.4502C74.1389 102 73.8311 101.988 73.5243 101.965C66.4637 101.445 60.9903 95.26 60.9982 87.809V78.6435H15.8674V78.5173L16.3436 9.92106C16.3436 4.39616 20.6398 0 25.8883 0ZM65.1559 33.5411V19.9823L50.9545 12.639L36.7556 19.9609V33.5411C36.7556 37.0155 38.8931 41.2715 41.6223 43.232L50.9545 49.9302L60.2866 43.232C63.0158 41.2715 65.1559 37.0155 65.1559 33.5411Z" fill="#87B645"/>
<path d="M73.5241 101.965L73.5223 102H13.4678C6.03596 102 0.00881805 95.6629 0 87.8397V78.6436H60.998V87.809C60.9901 95.26 66.4634 101.445 73.5241 101.965Z" fill="#2B69DD"/>
<path d="M65.1557 19.982V33.5408C65.1557 37.0153 63.0155 41.2712 60.2864 43.2317L50.9542 49.9299L41.6221 43.2317C38.8929 41.2712 36.7554 37.0153 36.7554 33.5408V19.9607L50.9542 12.6387L65.1557 19.982Z" fill="#2B69DD"/>
<path d="M73.4138 60.7425H30.0713C29.074 60.7425 28.2654 59.8922 28.2654 58.8415C28.2654 57.7916 29.074 56.9404 30.0713 56.9404H73.4138C74.4111 56.9404 75.2198 57.7916 75.2198 58.8415C75.2198 59.8922 74.4111 60.7425 73.4138 60.7425Z" fill="#2B69DD"/>
<path d="M73.4138 69.5345H30.0713C29.074 69.5345 28.2654 68.6842 28.2654 67.6335C28.2654 66.5836 29.074 65.7324 30.0713 65.7324H73.4138C74.4111 65.7324 75.2198 66.5836 75.2198 67.6335C75.2198 68.6842 74.4111 69.5345 73.4138 69.5345Z" fill="#2B69DD"/>
<path d="M49.1802 36.968H49.1758C48.6952 36.9662 48.2349 36.7638 47.8972 36.4046L44.2624 32.5403C43.8012 32.0595 43.6204 31.355 43.7897 30.694C43.959 30.0341 44.452 29.5207 45.0807 29.349C45.7094 29.1773 46.3769 29.375 46.8293 29.8651L49.1873 32.3714L55.0892 26.1614C55.7946 25.4188 56.9383 25.4188 57.6429 26.1614C58.3483 26.904 58.3483 28.107 57.6429 28.8496L50.4579 36.4111C50.1184 36.7675 49.659 36.968 49.1802 36.968Z" fill="#FBAC00"/>
</svg>
